<svg width="305" height="83" viewBox="0 0 305 83" fill="none" xmlns="http://www.w3.org/2000/svg">
<rect x="11.5914" y="7.02824" width="18.5532" height="80.4153" transform="rotate(-22 11.5914 7.02824)" fill="#246156"/>
<rect x="54.4693" y="31.1347" width="16.3974" height="59.1112" transform="rotate(-31.4129 54.4693 31.1347)" fill="#236357"/>
<path d="M109.097 50.4043C108.583 54.7224 103.724 57.6933 98.2455 57.0401C92.767 56.3868 88.7432 52.3567 89.2581 48.0386C89.773 43.7205 94.6316 40.7496 100.11 41.4029C105.589 42.0561 109.612 46.0862 109.097 50.4043Z" fill="url(#paint0_linear_12_20)"/>
<path d="M85.2731 81.586C87.957 81.8989 90.6735 81.6898 93.2588 80.9714C95.8441 80.253 98.2448 79.0401 100.316 77.4059C102.388 75.7716 104.087 73.7498 105.312 71.4621C106.537 69.1744 107.262 66.6683 107.444 64.0947L87.4787 62.5975L85.2731 81.586Z" fill="url(#paint1_linear_12_20)"/>
<path d="M89.1904 48.22L109.067 50.5902L107.344 65.0407L97.1885 63.8498L87.4673 62.6705L89.1904 48.22Z" fill="url(#paint2_linear_12_20)"/>
<path d="M46.5026 39.7868L66.4205 42.0561L63.8202 64.8793L43.9022 62.61L46.5026 39.7868Z" fill="url(#paint3_linear_12_20)"/>
<path d="M68.4453 22.5769C63.1938 22.0314 57.9454 23.5346 53.8399 26.76C49.7343 29.9854 47.1033 34.6725 46.5181 39.8034L66.4338 42.08L68.4453 22.5769Z" fill="url(#paint4_linear_12_20)"/>
<path d="M41.7231 81.5861C44.4071 81.8989 47.1235 81.6898 49.7088 80.9714C52.2942 80.253 54.6948 79.0402 56.7663 77.4059C58.8377 75.7716 60.5371 73.7498 61.762 71.4621C62.9869 69.1745 63.712 66.6683 63.8937 64.0947L43.9287 62.5976L41.7231 81.5861Z" fill="url(#paint5_linear_12_20)"/>
<path d="M19.6155 75.6203C19.1006 79.9384 14.3022 82.9165 8.89793 82.2721C3.49369 81.6277 -0.469907 77.6048 0.0449941 73.2867C0.559895 68.9686 5.35831 65.9905 10.7626 66.6349C16.1668 67.2793 20.1304 71.3022 19.6155 75.6203Z" fill="url(#paint6_linear_12_20)"/>
<path d="M6.96498 13.3534L26.4687 15.5756L19.6068 75.8021L0.103032 73.58L6.96498 13.3534Z" fill="url(#paint7_linear_12_20)"/>
<path d="M28.7871 0.0825142C23.6715 -0.330852 18.5497 0.819507 14.4856 3.29466C10.4214 5.76982 7.7273 9.37955 6.96273 13.3741L26.7405 15.7097L28.7871 0.0825142Z" fill="url(#paint8_linear_12_20)"/>
<path d="M25.7932 15.1006L26.7841 15.2349L23.521 39.3033L22.53 39.169L25.7932 15.1006Z" fill="url(#paint9_linear_12_20)"/>
<path d="M142.449 47.152C144.428 47.152 145.977 47.7493 147.097 48.944C148.236 50.1387 148.805 51.772 148.805 53.844V63H143.317V54.572C143.317 53.732 143.084 53.0787 142.617 52.612C142.151 52.1453 141.516 51.912 140.713 51.912C139.911 51.912 139.276 52.1453 138.809 52.612C138.343 53.0787 138.109 53.732 138.109 54.572V63H132.621V54.572C132.621 53.732 132.388 53.0787 131.921 52.612C131.473 52.1453 130.848 51.912 130.045 51.912C129.224 51.912 128.58 52.1453 128.113 52.612C127.647 53.0787 127.413 53.732 127.413 54.572V63H121.925V47.292H127.413V49.364C127.899 48.692 128.524 48.16 129.289 47.768C130.073 47.3573 130.969 47.152 131.977 47.152C133.135 47.152 134.161 47.404 135.057 47.908C135.972 48.412 136.691 49.1213 137.213 50.036C137.773 49.1773 138.511 48.4867 139.425 47.964C140.34 47.4227 141.348 47.152 142.449 47.152ZM155.884 45.836C154.913 45.836 154.129 45.5747 153.532 45.052C152.953 44.5107 152.664 43.8387 152.664 43.036C152.664 42.2147 152.953 41.5333 153.532 40.992C154.129 40.4507 154.913 40.18 155.884 40.18C156.836 40.18 157.601 40.4507 158.18 40.992C158.777 41.5333 159.076 42.2147 159.076 43.036C159.076 43.8387 158.777 44.5107 158.18 45.052C157.601 45.5747 156.836 45.836 155.884 45.836ZM158.6 47.292V63H153.112V47.292H158.6ZM173.301 47.152C175.112 47.152 176.549 47.7587 177.613 48.972C178.677 50.1667 179.209 51.7907 179.209 53.844V63H173.721V54.572C173.721 53.676 173.488 52.976 173.021 52.472C172.555 51.9493 171.929 51.688 171.145 51.688C170.324 51.688 169.68 51.9493 169.213 52.472C168.747 52.976 168.513 53.676 168.513 54.572V63H163.025V47.292H168.513V49.532C168.999 48.8227 169.652 48.2533 170.473 47.824C171.295 47.376 172.237 47.152 173.301 47.152ZM182.625 55.132C182.625 53.508 182.914 52.0893 183.493 50.876C184.09 49.6627 184.902 48.7293 185.929 48.076C186.955 47.4227 188.094 47.096 189.345 47.096C190.353 47.096 191.249 47.3107 192.033 47.74C192.835 48.1507 193.461 48.72 193.909 49.448V42.28H199.425V63H193.909V60.816C193.479 61.544 192.873 62.1227 192.089 62.552C191.305 62.9813 190.381 63.196 189.317 63.196C188.066 63.196 186.927 62.8693 185.901 62.216C184.893 61.5627 184.09 60.6293 183.493 59.416C182.914 58.184 182.625 56.756 182.625 55.132ZM193.937 55.132C193.937 54.124 193.657 53.3307 193.097 52.752C192.555 52.1733 191.883 51.884 191.081 51.884C190.259 51.884 189.578 52.1733 189.037 52.752C188.495 53.312 188.225 54.1053 188.225 55.132C188.225 56.14 188.495 56.9427 189.037 57.54C189.578 58.1187 190.259 58.408 191.081 58.408C191.883 58.408 192.555 58.1187 193.097 57.54C193.657 56.9613 193.937 56.1587 193.937 55.132Z" fill="#EBF0EF"/>
<path d="M212.588 63.224C209.964 63.224 207.809 62.6053 206.124 61.368C204.439 60.1093 203.532 58.3173 203.404 55.992H210.092C210.156 56.7813 210.391 57.3573 210.796 57.72C211.201 58.0827 211.724 58.264 212.364 58.264C212.94 58.264 213.409 58.1253 213.772 57.848C214.156 57.5493 214.348 57.144 214.348 56.632C214.348 55.9707 214.039 55.4587 213.42 55.096C212.801 54.7333 211.799 54.328 210.412 53.88C208.94 53.3893 207.745 52.92 206.828 52.472C205.932 52.0027 205.143 51.3307 204.46 50.456C203.799 49.56 203.468 48.3973 203.468 46.968C203.468 45.5173 203.831 44.28 204.556 43.256C205.281 42.2107 206.284 41.4213 207.564 40.888C208.844 40.3547 210.295 40.088 211.916 40.088C214.54 40.088 216.631 40.7067 218.188 41.944C219.767 43.16 220.609 44.8773 220.716 47.096H213.9C213.879 46.4133 213.665 45.9013 213.26 45.56C212.876 45.2187 212.375 45.048 211.756 45.048C211.287 45.048 210.903 45.1867 210.604 45.464C210.305 45.7413 210.156 46.136 210.156 46.648C210.156 47.0747 210.316 47.448 210.636 47.768C210.977 48.0667 211.393 48.3333 211.884 48.568C212.375 48.7813 213.1 49.0587 214.06 49.4C215.489 49.8907 216.663 50.3813 217.58 50.872C218.519 51.3413 219.319 52.0133 219.98 52.888C220.663 53.7413 221.004 54.8293 221.004 56.152C221.004 57.496 220.663 58.7013 219.98 59.768C219.319 60.8347 218.348 61.6773 217.068 62.296C215.809 62.9147 214.316 63.224 212.588 63.224ZM224.1 55.132C224.1 53.508 224.436 52.0893 225.108 50.876C225.78 49.6627 226.713 48.7293 227.908 48.076C229.121 47.4227 230.502 47.096 232.052 47.096C234.049 47.096 235.729 47.6467 237.092 48.748C238.454 49.8307 239.332 51.352 239.724 53.312H233.9C233.564 52.2853 232.91 51.772 231.94 51.772C231.249 51.772 230.698 52.0613 230.288 52.64C229.896 53.2 229.7 54.0307 229.7 55.132C229.7 56.2333 229.896 57.0733 230.288 57.652C230.698 58.2307 231.249 58.52 231.94 58.52C232.929 58.52 233.582 58.0067 233.9 56.98H239.724C239.332 58.9213 238.454 60.4427 237.092 61.544C235.729 62.6453 234.049 63.196 232.052 63.196C230.502 63.196 229.121 62.8693 227.908 62.216C226.713 61.5627 225.78 60.6293 225.108 59.416C224.436 58.2027 224.1 56.7747 224.1 55.132ZM248.792 50.064C249.408 49.168 250.154 48.4587 251.032 47.936C251.909 47.4133 252.852 47.152 253.86 47.152V53.004H252.32C251.125 53.004 250.238 53.2373 249.66 53.704C249.081 54.1707 248.792 54.9827 248.792 56.14V63H243.304V47.292H248.792V50.064ZM259.899 45.836C258.928 45.836 258.144 45.5747 257.547 45.052C256.968 44.5107 256.679 43.8387 256.679 43.036C256.679 42.2147 256.968 41.5333 257.547 40.992C258.144 40.4507 258.928 40.18 259.899 40.18C260.851 40.18 261.616 40.4507 262.195 40.992C262.792 41.5333 263.091 42.2147 263.091 43.036C263.091 43.8387 262.792 44.5107 262.195 45.052C261.616 45.5747 260.851 45.836 259.899 45.836ZM262.615 47.292V63H257.127V47.292H262.615ZM272.528 49.476C272.958 48.7293 273.564 48.1507 274.348 47.74C275.132 47.3107 276.056 47.096 277.12 47.096C278.371 47.096 279.5 47.4227 280.508 48.076C281.535 48.7293 282.338 49.6627 282.916 50.876C283.514 52.0893 283.812 53.508 283.812 55.132C283.812 56.756 283.514 58.184 282.916 59.416C282.338 60.6293 281.535 61.5627 280.508 62.216C279.5 62.8693 278.371 63.196 277.12 63.196C276.056 63.196 275.132 62.9907 274.348 62.58C273.564 62.1507 272.958 61.5627 272.528 60.816V63H267.04V42.28H272.528V49.476ZM278.24 55.132C278.24 54.1053 277.96 53.312 277.4 52.752C276.859 52.1733 276.187 51.884 275.384 51.884C274.582 51.884 273.9 52.1733 273.34 52.752C272.799 53.3307 272.528 54.124 272.528 55.132C272.528 56.1587 272.799 56.9613 273.34 57.54C273.9 58.1187 274.582 58.408 275.384 58.408C276.187 58.408 276.859 58.1187 277.4 57.54C277.96 56.9427 278.24 56.14 278.24 55.132ZM302.38 54.964C302.38 55.3933 302.352 55.8227 302.296 56.252H291.908C291.964 57.1107 292.197 57.7547 292.608 58.184C293.037 58.5947 293.578 58.8 294.232 58.8C295.146 58.8 295.8 58.3893 296.192 57.568H302.044C301.801 58.6507 301.325 59.6213 300.616 60.48C299.925 61.32 299.048 61.9827 297.984 62.468C296.92 62.9533 295.744 63.196 294.456 63.196C292.906 63.196 291.525 62.8693 290.312 62.216C289.117 61.5627 288.174 60.6293 287.484 59.416C286.812 58.2027 286.476 56.7747 286.476 55.132C286.476 53.4893 286.812 52.0707 287.484 50.876C288.156 49.6627 289.089 48.7293 290.284 48.076C291.497 47.4227 292.888 47.096 294.456 47.096C296.005 47.096 297.377 47.4133 298.572 48.048C299.766 48.6827 300.7 49.5973 301.372 50.792C302.044 51.968 302.38 53.3587 302.38 54.964ZM296.78 53.592C296.78 52.92 296.556 52.3973 296.108 52.024C295.66 51.632 295.1 51.436 294.428 51.436C293.756 51.436 293.205 51.6227 292.776 51.996C292.346 52.3507 292.066 52.8827 291.936 53.592H296.78Z" fill="#2FA15B"/>
<defs>
<linearGradient id="paint0_linear_12_20" x1="97.2075" y1="41.3128" x2="97.2075" y2="81.727" gradientUnits="userSpaceOnUse">
<stop stop-color="#0DFD8A"/>
<stop offset="1" stop-color="#1EA263"/>
</linearGradient>
<linearGradient id="paint1_linear_12_20" x1="97.2075" y1="41.3128" x2="97.2075" y2="81.727" gradientUnits="userSpaceOnUse">
<stop stop-color="#0DFD8A"/>
<stop offset="1" stop-color="#1EA263"/>
</linearGradient>
<linearGradient id="paint2_linear_12_20" x1="97.2075" y1="41.3128" x2="97.2075" y2="81.727" gradientUnits="userSpaceOnUse">
<stop stop-color="#0DFD8A"/>
<stop offset="1" stop-color="#1EA263"/>
</linearGradient>
<linearGradient id="paint3_linear_12_20" x1="55.0842" y1="22.4672" x2="55.0842" y2="81.727" gradientUnits="userSpaceOnUse">
<stop stop-color="#20F18C"/>
<stop offset="1" stop-color="#1C925A"/>
</linearGradient>
<linearGradient id="paint4_linear_12_20" x1="55.0842" y1="22.4672" x2="55.0842" y2="81.727" gradientUnits="userSpaceOnUse">
<stop stop-color="#20F18C"/>
<stop offset="1" stop-color="#1C925A"/>
</linearGradient>
<linearGradient id="paint5_linear_12_20" x1="55.0842" y1="22.4672" x2="55.0842" y2="81.727" gradientUnits="userSpaceOnUse">
<stop stop-color="#20F18C"/>
<stop offset="1" stop-color="#1C925A"/>
</linearGradient>
<linearGradient id="paint6_linear_12_20" x1="14.3935" y1="0" x2="14.3935" y2="82.3597" gradientUnits="userSpaceOnUse">
<stop stop-color="#15DE8A"/>
<stop offset="1" stop-color="#25623D"/>
</linearGradient>
<linearGradient id="paint7_linear_12_20" x1="14.3935" y1="0" x2="14.3935" y2="82.3597" gradientUnits="userSpaceOnUse">
<stop stop-color="#15DE8A"/>
<stop offset="1" stop-color="#25623D"/>
</linearGradient>
<linearGradient id="paint8_linear_12_20" x1="14.3935" y1="0" x2="14.3935" y2="82.3597" gradientUnits="userSpaceOnUse">
<stop stop-color="#15DE8A"/>
<stop offset="1" stop-color="#25623D"/>
</linearGradient>
<linearGradient id="paint9_linear_12_20" x1="26.2886" y1="15.1677" x2="23.0255" y2="39.2362" gradientUnits="userSpaceOnUse">
<stop stop-color="#17D784"/>
<stop offset="1" stop-color="#1EAD6B"/>
</linearGradient>
</defs>
</svg>
